<?xml version="1.0" encoding="UTF-8" standalone="no"?>
<!-- Generator: Adobe Illustrator 16.0.0, SVG Export Plug-In . SVG Version: 6.00 Build 0)  -->

<svg
   xmlns:dc="http://purl.org/dc/elements/1.1/"
   xmlns:cc="http://creativecommons.org/ns#"
   xmlns:rdf="http://www.w3.org/1999/02/22-rdf-syntax-ns#"
   xmlns:svg="http://www.w3.org/2000/svg"
   xmlns="http://www.w3.org/2000/svg"
   xmlns:sodipodi="http://sodipodi.sourceforge.net/DTD/sodipodi-0.dtd"
   xmlns:inkscape="http://www.inkscape.org/namespaces/inkscape"
   version="1.1"
   id="Capa_1"
   x="0px"
   y="0px"
   width="16"
   height="16"
   viewBox="0 0 16 16"
   xml:space="preserve"
   sodipodi:docname="icon_tools.svg"
   inkscape:version="0.92.2 (5c3e80d, 2017-08-06)"><metadata
     id="metadata57"><rdf:RDF><cc:Work
         rdf:about=""><dc:format>image/svg+xml</dc:format><dc:type
           rdf:resource="http://purl.org/dc/dcmitype/StillImage" /><dc:title></dc:title></cc:Work></rdf:RDF></metadata><defs
     id="defs55" /><sodipodi:namedview
     pagecolor="#ffffff"
     bordercolor="#666666"
     borderopacity="1"
     objecttolerance="10"
     gridtolerance="10"
     guidetolerance="10"
     inkscape:pageopacity="0"
     inkscape:pageshadow="2"
     inkscape:window-width="1246"
     inkscape:window-height="757"
     id="namedview53"
     showgrid="false"
     inkscape:zoom="15.733349"
     inkscape:cx="5.936735"
     inkscape:cy="15.332405"
     inkscape:window-x="316"
     inkscape:window-y="601"
     inkscape:window-maximized="0"
     inkscape:current-layer="Capa_1" /><g
     id="g20"
     transform="matrix(0.01645164,0,0,0.01645164,0.12711852,0.20970548)"
     style="fill:#e0e0e0;fill-opacity:1"><g
       id="g18"
       style="fill:#e0e0e0;fill-opacity:1"><path
         d="m 628.833,459.92 67.596,-67.596 c 48.836,19.389 103.95,18.183 152.007,-3.614 11.799,-5.353 14.622,-20.844 5.46,-30.006 L 733.52,238.329 c -14.625,-14.625 -14.625,-38.338 0,-52.963 L 853.771,65.114 c 9.221,-9.222 6.385,-24.827 -5.497,-30.203 C 776.762,2.554 689.668,15.763 630.885,74.545 575.672,129.757 560.806,210.52 586.267,279.503 l -68.926,68.926 z"
         id="path2"
         inkscape:connector-curvature="0"
         style="fill:#e0e0e0;fill-opacity:1" /><path
         d="m 499.665,366.106 -93.414,-93.414 -111.491,111.492 93.414,93.414 111.49,111.491 341.527,341.527 c 4.877,4.877 11.271,7.316 17.662,7.316 6.393,0 12.785,-2.439 17.662,-7.316 l 76.166,-76.166 c 9.755,-9.756 9.755,-25.57 0,-35.324 L 611.155,477.598 Z"
         id="path4"
         inkscape:connector-curvature="0"
         style="fill:#e0e0e0;fill-opacity:1" /><path
         d="m 904.345,127.995 -99.869,99.869 c -7.984,7.984 -7.984,20.93 0,28.914 l 76.972,76.972 c 8.594,8.593 22.826,7.907 30.371,-1.619 45.178,-57.037 53.729,-133.579 25.659,-198.004 -5.728,-13.146 -22.995,-16.272 -33.133,-6.132 z"
         id="path6"
         inkscape:connector-curvature="0"
         style="fill:#e0e0e0;fill-opacity:1" /><path
         d="M 139.613,601.295 259.988,721.67 c 14.625,14.625 14.625,38.338 0,52.963 L 139.737,894.885 c -9.221,9.221 -6.385,24.828 5.497,30.203 71.512,32.355 158.606,19.148 217.39,-39.635 55.014,-55.014 69.968,-135.395 44.888,-204.213 l 74.476,-74.475 -111.489,-111.49 -72.694,72.693 C 248.79,548.28 193.371,549.384 145.076,571.29 c -11.802,5.351 -14.624,20.845 -5.463,30.005 z"
         id="path8"
         inkscape:connector-curvature="0"
         style="fill:#e0e0e0;fill-opacity:1" /><path
         d="m 81.69,629.866 c -45.177,57.037 -53.728,133.58 -25.659,198.004 5.727,13.146 22.994,16.271 33.133,6.133 l 99.869,-99.869 c 7.984,-7.984 7.984,-20.93 0,-28.914 l -76.972,-76.971 c -8.593,-8.594 -22.826,-7.909 -30.371,1.617 z"
         id="path10"
         inkscape:connector-curvature="0"
         style="fill:#e0e0e0;fill-opacity:1" /><path
         d="m 138.849,461.443 c 11.956,11.956 31.339,11.956 43.295,0 l 5.772,-5.772 c 11.956,-11.955 11.956,-31.339 0,-43.294 l -11.545,-11.545 22.731,-22.73 -106.793,-106.794 -22.73,22.73 -11.545,-11.545 c -11.956,-11.955 -31.339,-11.955 -43.295,0 l -5.772,5.773 c -11.956,11.956 -11.956,31.339 0,43.294 z"
         id="path12"
         inkscape:connector-curvature="0"
         style="fill:#e0e0e0;fill-opacity:1" /><path
         d="M 304.036,65.967 409.493,171.424 C 531.076,90.415 599.039,158.365 505.571,64.898 440.93,0.256 359.305,30.842 304.036,65.967 Z"
         id="path14"
         inkscape:connector-curvature="0"
         style="fill:#e0e0e0;fill-opacity:1" /><path
         d="m 271.62,68.906 c -5.978,-5.978 -13.812,-8.967 -21.647,-8.967 -7.835,0 -15.67,2.989 -21.647,8.967 L 98.441,198.79 c -11.956,11.955 -11.956,31.339 0,43.295 l 11.545,11.545 106.793,106.793 11.545,11.545 c 5.978,5.978 13.812,8.967 21.647,8.967 1.894,0 3.788,-0.179 5.655,-0.528 4.374,-0.817 8.603,-2.592 12.352,-5.324 1.272,-0.929 2.491,-1.965 3.64,-3.113 l 5.462,-5.462 111.49,-111.491 8.838,-8.838 4.094,-4.093 c 1.631,-1.631 3.031,-3.405 4.218,-5.275 7.507,-11.836 6.105,-27.696 -4.218,-38.02 L 388.931,186.22 283.044,80.33 Z"
         id="path16"
         inkscape:connector-curvature="0"
         style="fill:#e0e0e0;fill-opacity:1" /></g></g><g
     id="g22"
     transform="translate(0,-943.99902)" /><g
     id="g24"
     transform="translate(0,-943.99902)" /><g
     id="g26"
     transform="translate(0,-943.99902)" /><g
     id="g28"
     transform="translate(0,-943.99902)" /><g
     id="g30"
     transform="translate(0,-943.99902)" /><g
     id="g32"
     transform="translate(0,-943.99902)" /><g
     id="g34"
     transform="translate(0,-943.99902)" /><g
     id="g36"
     transform="translate(0,-943.99902)" /><g
     id="g38"
     transform="translate(0,-943.99902)" /><g
     id="g40"
     transform="translate(0,-943.99902)" /><g
     id="g42"
     transform="translate(0,-943.99902)" /><g
     id="g44"
     transform="translate(0,-943.99902)" /><g
     id="g46"
     transform="translate(0,-943.99902)" /><g
     id="g48"
     transform="translate(0,-943.99902)" /><g
     id="g50"
     transform="translate(0,-943.99902)" /></svg>