<?xml version="1.0" encoding="UTF-8" standalone="no"?>
<!-- Generator: Adobe Illustrator 19.0.0, SVG Export Plug-In . SVG Version: 6.00 Build 0)  -->

<svg
   xmlns:dc="http://purl.org/dc/elements/1.1/"
   xmlns:cc="http://creativecommons.org/ns#"
   xmlns:rdf="http://www.w3.org/1999/02/22-rdf-syntax-ns#"
   xmlns:svg="http://www.w3.org/2000/svg"
   xmlns="http://www.w3.org/2000/svg"
   xmlns:sodipodi="http://sodipodi.sourceforge.net/DTD/sodipodi-0.dtd"
   xmlns:inkscape="http://www.inkscape.org/namespaces/inkscape"
   version="1.1"
   id="Capa_1"
   x="0px"
   y="0px"
   viewBox="0 0 16 16"
   xml:space="preserve"
   sodipodi:docname="icon_plug.svg"
   width="16"
   height="16"
   inkscape:version="0.92.2 (5c3e80d, 2017-08-06)"><metadata
     id="metadata55"><rdf:RDF><cc:Work
         rdf:about=""><dc:format>image/svg+xml</dc:format><dc:type
           rdf:resource="http://purl.org/dc/dcmitype/StillImage" /><dc:title></dc:title></cc:Work></rdf:RDF></metadata><defs
     id="defs53" /><sodipodi:namedview
     pagecolor="#ffffff"
     bordercolor="#666666"
     borderopacity="1"
     objecttolerance="10"
     gridtolerance="10"
     guidetolerance="10"
     inkscape:pageopacity="0"
     inkscape:pageshadow="2"
     inkscape:window-width="1018"
     inkscape:window-height="818"
     id="namedview51"
     showgrid="false"
     inkscape:zoom="14.737565"
     inkscape:cx="10.17091"
     inkscape:cy="8.4845516"
     inkscape:window-x="770"
     inkscape:window-y="648"
     inkscape:window-maximized="0"
     inkscape:current-layer="Capa_1" /><g
     id="g6"
     transform="matrix(0.03111876,0,0,0.03111876,0,0.03921135)"
     style="fill:#e0e0e0;fill-opacity:1"><g
       id="g4"
       style="fill:#e0e0e0;fill-opacity:1"><path
         d="M 424.091,324.128 188.293,89.419 C 184.154,85.28 177.392,85.28 173.232,89.44 l -42.091,42.091 c -4.16,4.16 -4.16,10.923 0,15.083 l 13.781,13.803 -66.368,66.368 c -42.901,42.901 -45.035,110.763 -7.467,156.8 L 3.12,451.552 c -4.16,4.16 -4.16,10.923 0,15.083 l 42.667,42.667 c 2.091,2.091 4.821,3.115 7.552,3.115 2.731,0 5.461,-1.045 7.552,-3.115 l 67.968,-67.968 c 21.504,17.536 47.531,26.859 73.835,26.859 30.037,0 60.096,-11.435 82.965,-34.304 l 66.368,-66.368 13.781,13.781 c 4.117,4.117 10.816,4.16 14.976,0.107 l 43.221,-42.091 c 2.048,-2.005 3.2,-4.736 3.221,-7.573 0.022,-2.838 -1.13,-5.612 -3.135,-7.617 z"
         id="path2"
         inkscape:connector-curvature="0"
         style="fill:#e0e0e0;fill-opacity:1" /></g></g><g
     id="g12"
     transform="matrix(0.03111876,0,0,0.03111876,0,0.03921135)"
     style="fill:#e0e0e0;fill-opacity:1"><g
       id="g10"
       style="fill:#e0e0e0;fill-opacity:1"><path
         d="m 372.379,11.936 c -15.872,-15.893 -41.749,-15.893 -57.621,0 l -86.827,86.827 57.877,57.621 86.677,-86.699 c 7.701,-7.701 11.947,-17.92 11.947,-28.821 0,-10.901 -4.245,-21.12 -12.053,-28.928 z"
         id="path8"
         inkscape:connector-curvature="0"
         style="fill:#e0e0e0;fill-opacity:1" /></g></g><g
     id="g18"
     transform="matrix(0.03111876,0,0,0.03111876,0,0.03921135)"
     style="fill:#e0e0e0;fill-opacity:1"><g
       id="g16"
       style="fill:#e0e0e0;fill-opacity:1"><path
         d="m 500.357,139.936 c -15.872,-15.893 -41.749,-15.893 -57.621,0 l -86.528,86.528 57.899,57.621 86.379,-86.379 c 7.701,-7.701 11.947,-17.92 11.947,-28.821 0,-10.901 -4.246,-21.141 -12.076,-28.949 z"
         id="path14"
         inkscape:connector-curvature="0"
         style="fill:#e0e0e0;fill-opacity:1" /></g></g><g
     id="g20"
     transform="translate(0,-496.43201)" /><g
     id="g22"
     transform="translate(0,-496.43201)" /><g
     id="g24"
     transform="translate(0,-496.43201)" /><g
     id="g26"
     transform="translate(0,-496.43201)" /><g
     id="g28"
     transform="translate(0,-496.43201)" /><g
     id="g30"
     transform="translate(0,-496.43201)" /><g
     id="g32"
     transform="translate(0,-496.43201)" /><g
     id="g34"
     transform="translate(0,-496.43201)" /><g
     id="g36"
     transform="translate(0,-496.43201)" /><g
     id="g38"
     transform="translate(0,-496.43201)" /><g
     id="g40"
     transform="translate(0,-496.43201)" /><g
     id="g42"
     transform="translate(0,-496.43201)" /><g
     id="g44"
     transform="translate(0,-496.43201)" /><g
     id="g46"
     transform="translate(0,-496.43201)" /><g
     id="g48"
     transform="translate(0,-496.43201)" /></svg>