<?xml version="1.0" encoding="UTF-8" standalone="no"?>
<!-- Generator: Adobe Illustrator 19.0.0, SVG Export Plug-In . SVG Version: 6.00 Build 0)  -->

<svg
   xmlns:dc="http://purl.org/dc/elements/1.1/"
   xmlns:cc="http://creativecommons.org/ns#"
   xmlns:rdf="http://www.w3.org/1999/02/22-rdf-syntax-ns#"
   xmlns:svg="http://www.w3.org/2000/svg"
   xmlns="http://www.w3.org/2000/svg"
   xmlns:sodipodi="http://sodipodi.sourceforge.net/DTD/sodipodi-0.dtd"
   xmlns:inkscape="http://www.inkscape.org/namespaces/inkscape"
   version="1.1"
   id="Capa_1"
   x="0px"
   y="0px"
   viewBox="0 0 16 16"
   xml:space="preserve"
   sodipodi:docname="icon_blueprint.svg"
   width="16"
   height="16"
   inkscape:version="0.92.2 (5c3e80d, 2017-08-06)"><metadata
     id="metadata49"><rdf:RDF><cc:Work
         rdf:about=""><dc:format>image/svg+xml</dc:format><dc:type
           rdf:resource="http://purl.org/dc/dcmitype/StillImage" /><dc:title /></cc:Work></rdf:RDF></metadata><defs
     id="defs47" /><sodipodi:namedview
     pagecolor="#ffffff"
     bordercolor="#666666"
     borderopacity="1"
     objecttolerance="10"
     gridtolerance="10"
     guidetolerance="10"
     inkscape:pageopacity="0"
     inkscape:pageshadow="2"
     inkscape:window-width="2560"
     inkscape:window-height="1377"
     id="namedview45"
     showgrid="false"
     inkscape:zoom="14.75"
     inkscape:cx="-0.91077815"
     inkscape:cy="14.29043"
     inkscape:window-x="1912"
     inkscape:window-y="-8"
     inkscape:window-maximized="1"
     inkscape:current-layer="Capa_1" /><g
     transform="matrix(0.03111569,0,0,0.03111569,0.03111569,0.11507511)"
     id="g12"
     style="fill:#ffffff;fill-opacity:1;stroke:#000000;stroke-opacity:1;stroke-width:13.85153278;stroke-miterlimit:4;stroke-dasharray:none"><g
       id="g10"
       style="fill:#ffffff;fill-opacity:1;stroke:#000000;stroke-opacity:1;stroke-width:13.85153278;stroke-miterlimit:4;stroke-dasharray:none"><g
         id="g8"
         style="fill:#ffffff;fill-opacity:1;stroke:#000000;stroke-opacity:1;stroke-width:13.85153278;stroke-miterlimit:4;stroke-dasharray:none"><path
           d="M 489.667,73.667 H 166.979 c -9.472,-36.807 -42.88,-64 -82.645,-64 C 37.202,9.667 -1,47.869 -1,95 v 320 c 0,0.461 0.012,0.914 0.034,1.36 0.73,46.501 38.624,83.973 85.299,83.973 h 405.333 c 11.782,0 21.333,-9.551 21.333,-21.333 V 95 C 511,83.218 501.449,73.667 489.667,73.667 Z M 41.667,95 c 0,-23.567 19.099,-42.667 42.667,-42.667 23.568,0 42.666,19.1 42.666,42.667 v 246.081 c -12.551,-7.26 -27.123,-11.415 -42.667,-11.415 -15.543,0 -30.116,4.155 -42.667,11.415 V 95 Z m 426.666,362.667 h -384 c -23.567,0 -42.667,-19.099 -42.667,-42.667 0,-23.568 19.099,-42.667 42.667,-42.667 23.568,0 42.667,19.1 42.667,42.667 0,14.222 10.667,21.333 21.333,21.333 v 0 0 c 10.667,0 21.333,-7.111 21.333,-21.333 V 116.333 h 298.667 z"
           id="path2"
           inkscape:connector-curvature="0"
           style="fill:#ffffff;fill-opacity:1;stroke:#000000;stroke-opacity:1;stroke-width:13.85153278;stroke-miterlimit:4;stroke-dasharray:none" /><path
           d="m 233.667,351 h 170.667 c 11.782,0 21.333,-9.551 21.333,-21.333 V 223 c 0,-6.715 -3.161,-13.038 -8.533,-17.067 l -85.333,-64 c -7.585,-5.689 -18.015,-5.689 -25.6,0 l -85.333,64 c -5.372,4.029 -8.533,10.352 -8.533,17.067 V 329.667 C 212.333,341.449 221.885,351 233.667,351 Z M 255,233.667 l 64,-48 64,48 v 74.667 H 255 Z"
           id="path4"
           inkscape:connector-curvature="0"
           style="fill:#ffffff;fill-opacity:1;stroke:#000000;stroke-opacity:1;stroke-width:13.85153278;stroke-miterlimit:4;stroke-dasharray:none" /><path
           d="m 402.836,372.333 h -41.173 c -11.782,0 -21.333,9.551 -21.333,21.333 0,11.782 9.551,21.333 21.333,21.333 h 41.173 c 11.782,0 21.333,-9.551 21.333,-21.333 0,-11.781 -9.551,-21.333 -21.333,-21.333 z"
           id="path6"
           inkscape:connector-curvature="0"
           style="fill:#ffffff;fill-opacity:1;stroke:#000000;stroke-opacity:1;stroke-width:13.85153278;stroke-miterlimit:4;stroke-dasharray:none" /></g></g></g><g
     id="g14"
     transform="translate(0,-496)" /><g
     id="g16"
     transform="translate(0,-496)" /><g
     id="g18"
     transform="translate(0,-496)" /><g
     id="g20"
     transform="translate(0,-496)" /><g
     id="g22"
     transform="translate(0,-496)" /><g
     id="g24"
     transform="translate(0,-496)" /><g
     id="g26"
     transform="translate(0,-496)" /><g
     id="g28"
     transform="translate(0,-496)" /><g
     id="g30"
     transform="translate(0,-496)" /><g
     id="g32"
     transform="translate(0,-496)" /><g
     id="g34"
     transform="translate(0,-496)" /><g
     id="g36"
     transform="translate(0,-496)" /><g
     id="g38"
     transform="translate(0,-496)" /><g
     id="g40"
     transform="translate(0,-496)" /><g
     id="g42"
     transform="translate(0,-496)" /></svg>