<?xml version="1.0" encoding="UTF-8" standalone="no"?>
<svg
   xmlns:dc="http://purl.org/dc/elements/1.1/"
   xmlns:cc="http://creativecommons.org/ns#"
   xmlns:rdf="http://www.w3.org/1999/02/22-rdf-syntax-ns#"
   xmlns:svg="http://www.w3.org/2000/svg"
   xmlns="http://www.w3.org/2000/svg"
   xmlns:sodipodi="http://sodipodi.sourceforge.net/DTD/sodipodi-0.dtd"
   xmlns:inkscape="http://www.inkscape.org/namespaces/inkscape"
   version="1.1"
   viewBox="0 0 16 16"
   enable-background="new 0 0 26 26"
   id="svg2"
   inkscape:version="0.91 r13725"
   sodipodi:docname="icon_download.svg"
   width="16"
   height="16">
  <metadata
     id="metadata14">
    <rdf:RDF>
      <cc:Work
         rdf:about="">
        <dc:format>image/svg+xml</dc:format>
        <dc:type
           rdf:resource="http://purl.org/dc/dcmitype/StillImage" />
        <dc:title></dc:title>
      </cc:Work>
    </rdf:RDF>
  </metadata>
  <defs
     id="defs12" />
  <sodipodi:namedview
     pagecolor="#ffffff"
     bordercolor="#666666"
     borderopacity="1"
     objecttolerance="10"
     gridtolerance="10"
     guidetolerance="10"
     inkscape:pageopacity="0"
     inkscape:pageshadow="2"
     inkscape:window-width="1920"
     inkscape:window-height="1027"
     id="namedview10"
     showgrid="false"
     inkscape:zoom="9.0769231"
     inkscape:cx="-2.9194915"
     inkscape:cy="13"
     inkscape:window-x="0"
     inkscape:window-y="0"
     inkscape:window-maximized="1"
     inkscape:current-layer="svg2" />
  <g
     id="g4"
     transform="matrix(0.61440678,0,0,0.61440678,0,-0.36016949)"
     style="fill:#e0e0e0;fill-opacity:1">
    <path
       d="m 25,17 -2,0 c -0.6,0 -1,0.4 -1,1 l 0,2.5 c 0,0.3 -0.2,0.5 -0.5,0.5 l -17,0 C 4.2,21 4,20.8 4,20.5 L 4,18 C 4,17.4 3.6,17 3,17 l -2,0 c -0.6,0 -1,0.4 -1,1 l 0,6 c 0,0.6 0.4,1 1,1 l 24,0 c 0.6,0 1,-0.4 1,-1 l 0,-6 c 0,-0.6 -0.4,-1 -1,-1 z"
       id="path6"
       inkscape:connector-curvature="0"
       style="fill:#e0e0e0;fill-opacity:1" />
    <path
       d="m 12.3,16.7 c 0.2,0.2 0.5,0.3 0.7,0.3 0.2,0 0.5,-0.1 0.7,-0.3 l 6,-6 C 19.9,10.5 20,10.3 20,10 20,9.7 19.9,9.5 19.7,9.3 L 18.3,7.9 C 18.1,7.7 17.9,7.6 17.6,7.6 c -0.3,0 -0.5,0.1 -0.7,0.3 l -1,1 C 15.6,9.2 15,9 15,8.5 L 15,2 C 15,1.4 14.6,1 14,1 l -2,0 c -0.6,0 -1,0.4 -1,1 l 0,6.6 C 11,9 10.5,9.3 10.1,9 L 9.1,8 C 8.9,7.8 8.7,7.7 8.4,7.7 8.1,7.7 7.9,7.8 7.7,8 L 6.3,9.4 C 6.1,9.6 6,9.8 6,10.1 c 0,0.3 0.1,0.5 0.3,0.7 l 6,5.9 z"
       id="path8"
       inkscape:connector-curvature="0"
       style="fill:#e0e0e0;fill-opacity:1" />
  </g>
</svg>
