<?xml version="1.0" encoding="UTF-8" standalone="no"?>
<svg
   xmlns:dc="http://purl.org/dc/elements/1.1/"
   xmlns:cc="http://creativecommons.org/ns#"
   xmlns:rdf="http://www.w3.org/1999/02/22-rdf-syntax-ns#"
   xmlns:svg="http://www.w3.org/2000/svg"
   xmlns="http://www.w3.org/2000/svg"
   xmlns:sodipodi="http://sodipodi.sourceforge.net/DTD/sodipodi-0.dtd"
   xmlns:inkscape="http://www.inkscape.org/namespaces/inkscape"
   width="16"
   height="12"
   version="1.1"
   viewBox="0 0 16 12"
   id="svg4"
   sodipodi:docname="icon_node_path.svg"
   inkscape:version="0.92.2 (5c3e80d, 2017-08-06)">
  <metadata
     id="metadata10">
    <rdf:RDF>
      <cc:Work
         rdf:about="">
        <dc:format>image/svg+xml</dc:format>
        <dc:type
           rdf:resource="http://purl.org/dc/dcmitype/StillImage" />
      </cc:Work>
    </rdf:RDF>
  </metadata>
  <defs
     id="defs8" />
  <sodipodi:namedview
     pagecolor="#ffffff"
     bordercolor="#666666"
     borderopacity="1"
     objecttolerance="10"
     gridtolerance="10"
     guidetolerance="10"
     inkscape:pageopacity="0"
     inkscape:pageshadow="2"
     inkscape:window-width="716"
     inkscape:window-height="489"
     id="namedview6"
     showgrid="false"
     inkscape:zoom="17.75"
     inkscape:cx="8"
     inkscape:cy="6"
     inkscape:window-x="874"
     inkscape:window-y="746"
     inkscape:window-maximized="0"
     inkscape:current-layer="svg4" />
  <path
     d="m0 2v8h2v-2a3 3 0 0 0 3 -3 3 3 0 0 0 -3 -3h-2zm6 0v5a3 3 0 0 0 3 3h1v-2h-1a1 1 0 0 1 -1 -1v-1h2v-2h-2v-2h-2zm5 0v8h2v-4a1 1 0 0 1 1 1v3h2v-3a3 3 0 0 0 -3 -3v-2h-2zm-9 2a1 1 0 0 1 1 1 1 1 0 0 1 -1 1v-2z"
     fill="#6993ec"
     id="path2"
     style="fill:#e0e0e0;fill-opacity:1" />
</svg>
